<svg width="50" height="135" viewBox="0 0 50 135" fill="none" xmlns="http://www.w3.org/2000/svg">
<path d="M33.0706 37.1527V33.1189C33.0706 29.7988 27.8333 28.0873 25.0514 28.0873C22.2695 28.0873 17.002 29.7988 17.002 33.1189V37.1527M1 25.0575L11.0391 25.2631M39.0698 25.0575L49 25.2631M24.9486 1L25.0575 11.0391M24.9486 39.0698L25.0575 49M25.0575 25.0212C27.3072 25.0212 28.9945 23.4427 28.9945 21.0539V19.0884C28.9945 16.6996 27.3072 15.1212 25.0575 15.1212C22.8077 15.1212 21.0842 16.6996 21.0842 19.0884V21.0539C21.0842 23.4427 22.7715 25.0212 25.0575 25.0212ZM42.904 24.9849C42.904 28.3171 42.1601 31.1232 40.497 33.9958C38.8339 36.8685 36.7778 38.9247 33.9112 40.5938C31.0446 42.263 28.2446 43.0068 24.9546 43.0068C21.6647 43.0068 18.8284 42.263 15.9618 40.5938C13.0953 38.9247 11.0391 36.8685 9.37596 33.9958C7.71287 31.1232 6.96901 28.3171 6.96901 24.9849C6.96901 21.6526 7.71287 18.8465 9.37596 15.9739C11.0391 13.1013 13.0953 11.0451 15.9618 9.37596C18.8284 7.7431 21.6285 6.96296 24.9546 6.96296C28.2808 6.96296 31.0446 7.7431 33.9112 9.37596C36.7778 11.0451 38.8339 13.1013 40.497 15.9739C42.1601 18.8465 42.904 21.6829 42.904 24.9849Z" stroke="#284D6D" stroke-width="1.5" stroke-linejoin="round"/>
<line x1="26" y1="65" x2="26" y2="135" stroke="#284D6D" stroke-width="2"/>
</svg>
