<svg width="57" height="135" viewBox="0 0 57 135" fill="none" xmlns="http://www.w3.org/2000/svg">
<path d="M48.3409 30.9881C48.0976 30.6128 48.5841 29.2923 48.8343 28.9101C49.7795 27.4576 50.2798 25.8383 50.3146 24.1078C50.3285 23.3086 50.6065 22.6762 51.1902 22.0994C52.3647 20.9388 53.5323 19.7573 54.6929 18.5828L55.5338 17.7349C56.4859 16.7689 56.3261 16.0253 55.0473 15.0037C50.3354 11.2508 45.9224 7.10186 42.3502 2.25095C41.7317 1.41003 41.1965 1 40.6823 1C40.3209 1 39.9456 1.20154 39.5356 1.61853L38.7572 2.39689C37.5549 3.60615 36.3526 4.80845 35.1642 6.0316C34.6152 6.60148 33.9897 6.86557 33.1905 6.86557C31.6198 6.85862 30.0492 6.85167 28.4855 6.85167C26.9218 6.85167 25.372 6.85167 23.8014 6.86557C23.6068 6.86557 23.4191 6.85167 23.2385 6.81692C22.7033 6.71962 22.2516 6.46248 21.8416 6.0455C20.7227 4.8988 19.5899 3.76599 18.4501 2.63318L17.5744 1.75752C17.1436 1.32664 16.7544 1.1112 16.3999 1.1112C15.7606 1.1112 15.0378 1.77837 14.1204 3.18916C11.0069 7.94972 6.93441 11.9736 2.153 15.0523C0.860349 15.8863 0.651858 16.9427 1.54142 17.8392C2.74372 19.0484 3.95298 20.2646 5.16223 21.4669C6.12824 22.426 6.61472 23.4893 6.64947 24.7194C6.69812 26.1024 6.62862 29.751 7.21935 30.7935M48.3409 30.9881L34.6152 17.443M48.3409 30.9881C49.6544 32.3016 49.6544 34.4212 48.3409 35.7347C47.0274 37.0482 44.9077 37.0482 43.5942 35.7347M38.8892 31.0298L43.5942 35.7347M43.5942 35.7347C44.9077 37.0482 44.8868 39.1887 43.5595 40.5161C42.2321 41.8435 40.0915 41.8644 38.778 40.5509M38.778 40.5509L34.0731 35.8459M38.778 40.5509C40.0915 41.8644 40.0915 43.984 38.778 45.2975C37.4645 46.611 35.5186 46.4095 34.0314 45.2975C34.0314 45.2975 31.5573 43.3447 30.4314 42.2397M29.1318 47.8203L32.4607 44.4914M32.4121 6.93506H26.4145C25.3442 6.93506 24.3226 7.4007 23.6276 8.21381L14.3081 18.9998L15.1629 19.1874C18.9366 20.0144 22.2724 18.7704 24.9689 15.9906C25.789 15.0871 27.1442 14.8994 28.1589 15.5666C30.2785 16.9635 32.5719 18.1241 34.8931 17.3597C36.9781 16.6786 38.3541 14.7327 39.89 13.0647L40.1054 12.8284M16.1351 27.0898C17.446 28.4006 17.446 30.526 16.1351 31.8369L12.7984 35.1736C11.4875 36.4845 9.36213 36.4845 8.05125 35.1736C6.74037 33.8627 6.74037 31.7374 8.05125 30.4265L11.388 27.0898C12.6989 25.7789 14.8242 25.7789 16.1351 27.0898ZM25.6632 36.617C26.9741 37.9279 26.974 40.0533 25.6632 41.3642L22.3264 44.7009C21.0156 46.0118 18.8902 46.0118 17.5793 44.7009C16.2684 43.39 16.2684 41.2647 17.5793 39.9538L20.9161 36.617C22.2269 35.3062 24.3523 35.3062 25.6632 36.617ZM24.1975 48.0149C22.884 46.7014 22.884 44.5817 24.1975 43.2682L25.4693 41.9964C26.7828 40.6829 28.9025 40.6829 30.216 41.9964C31.5295 43.3099 31.7519 45.2072 30.216 46.7431L28.9442 48.0149C27.6307 49.3284 25.511 49.3284 24.1975 48.0149ZM24.2442 28.4867C25.5551 29.7976 25.5551 31.9229 24.2442 33.2338L17.4184 40.0596C16.1075 41.3705 13.9822 41.3705 12.6713 40.0596C11.3604 38.7487 11.3604 36.6234 12.6713 35.3125L19.4971 28.4867C20.808 27.1758 22.9334 27.1758 24.2442 28.4867ZM31.5295 43.9006H32.1063V44.5887H31.5295V43.9006Z" stroke="#284D6D" stroke-width="1.5" stroke-linecap="round" stroke-linejoin="round"/>
<line x1="29.5724" y1="65" x2="29.5724" y2="135" stroke="#284D6D" stroke-width="2"/>
</svg>
