<svg width="50" height="135" viewBox="0 0 50 135" fill="none" xmlns="http://www.w3.org/2000/svg">
<path d="M5.32111 24.5751L11.2895 18.6067M1 13.5396L9.39752 14.3334M6.75352 3.17249L11.4924 10.1495M18.4038 1L16.0523 9.0991M27.5056 8.58582L19.7646 11.9401M32.8294 41.2329C31.8446 42.7071 28.7649 47.3087 28.192 48.192C27.8279 48.7531 27.3325 49.0694 26.6521 48.956C25.9956 48.8485 25.6435 48.4069 25.4525 47.7802C22.6354 38.38 19.8124 28.9798 16.9833 19.5796C16.7983 18.9708 16.8043 18.4038 17.2758 17.9204C17.7652 17.425 18.3441 17.425 18.9708 17.616C26.4194 19.8541 45.1601 25.4883 47.0819 26.0553C47.7384 26.2463 48.2219 26.5924 48.3293 27.2967C48.4367 28.001 48.0846 28.4725 47.5116 28.8545C45.3869 30.257 40.8151 33.3248 40.4689 33.5635C42.1102 35.0974 45.4645 38.3382 47.7205 40.5943C48.5859 41.4597 48.5859 42.1878 47.7205 43.0532C45.9419 44.8378 44.1574 46.6164 42.3788 48.395C41.5731 49.2007 40.8151 49.2007 40.0153 48.4009C37.7473 46.1389 32.9846 41.3821 32.8294 41.2329Z" stroke="#284D6D" stroke-width="1.5" stroke-miterlimit="10" stroke-linecap="round"/>
<line x1="25.6848" y1="65" x2="25.6848" y2="135" stroke="#284D6D" stroke-width="2"/>
</svg>
