<svg width="51" height="50" viewBox="0 0 51 50" fill="none" xmlns="http://www.w3.org/2000/svg">
<path d="M1 30.6476L0.656711 29.9807C0.479859 30.0718 0.346417 30.2293 0.285743 30.4188C0.225069 30.6082 0.242131 30.814 0.333177 30.9908L1 30.6476ZM5.66698 28.2449L6.01027 28.9118H6.01027L5.66698 28.2449ZM9.7044 29.5381L10.3712 29.1948L9.7044 29.5381ZM16.4082 42.56L15.7414 42.9032L16.4082 42.56ZM15.1151 46.5974L15.4584 47.2642L15.1151 46.5974ZM10.4481 49L9.78126 49.3433C9.97085 49.7116 10.4231 49.8564 10.7914 49.6668L10.4481 49ZM9.19917 28.4326C8.86132 28.6722 8.78172 29.1404 9.02138 29.4782C9.26103 29.8161 9.72919 29.8957 10.067 29.656L9.19917 28.4326ZM10.875 28.1633L11.309 28.775L11.3091 28.7749L10.875 28.1633ZM13.8361 26.1567L13.4387 25.5206L13.4383 25.5208L13.8361 26.1567ZM22.6336 25.9425L22.2693 26.5982L22.271 26.5991L22.6336 25.9425ZM25.876 28.1083L25.4329 28.7133C25.5052 28.7663 25.5865 28.8059 25.6728 28.8302L25.876 28.1083ZM26.5062 28.2857L26.3029 29.0076C26.3601 29.0237 26.4191 29.033 26.4785 29.0352L26.5062 28.2857ZM34.282 28.5732L34.2543 29.3227C34.2635 29.323 34.2727 29.3232 34.282 29.3232V28.5732ZM36.2972 31.3385C36.2972 31.7527 36.633 32.0885 37.0472 32.0885C37.4615 32.0885 37.7972 31.7527 37.7972 31.3385H36.2972ZM37.7972 31.0509C37.7972 30.6367 37.4615 30.3009 37.0472 30.3009C36.633 30.3009 36.2972 30.6367 36.2972 31.0509H37.7972ZM27.0507 34.1038V33.3538C26.6366 33.3538 26.3009 33.6892 26.3007 34.1032C26.3004 34.5172 26.6356 34.8532 27.0496 34.8538L27.0507 34.1038ZM35.8114 34.116L35.8372 33.3664C35.8289 33.3662 35.8207 33.366 35.8125 33.366L35.8114 34.116ZM38.8704 32.6844L38.3731 32.123C38.3634 32.1315 38.354 32.1403 38.3449 32.1493L38.8704 32.6844ZM46.2118 26.1811L46.7091 26.7425C46.7187 26.734 46.7282 26.7252 46.7373 26.7162L46.2118 26.1811ZM48.7446 25.9854L49.1821 25.3762L49.1792 25.3741L48.7446 25.9854ZM49.1484 28.8057L48.5603 28.3402C48.5486 28.355 48.5375 28.3702 48.5269 28.3859L49.1484 28.8057ZM44.0277 36.3857L44.6345 36.8266C44.6395 36.8196 44.6444 36.8126 44.6492 36.8056L44.0277 36.3857ZM16.1364 42.6101C15.7222 42.6101 15.3864 42.9459 15.3864 43.3601C15.3864 43.7743 15.7222 44.1101 16.1364 44.1101V42.6101ZM1.34329 31.3144L6.01027 28.9118L5.32369 27.5781L0.656711 29.9807L1.34329 31.3144ZM6.01027 28.9118C7.11063 28.3453 8.4711 28.781 9.03758 29.8814L10.3712 29.1948C9.42556 27.3579 7.1606 26.6324 5.32369 27.5781L6.01027 28.9118ZM9.03758 29.8814L15.7414 42.9032L17.0751 42.2167L10.3712 29.1948L9.03758 29.8814ZM15.7414 42.9032C16.3079 44.0036 15.8721 45.3641 14.7718 45.9306L15.4584 47.2642C17.2953 46.3185 18.0207 44.0536 17.0751 42.2167L15.7414 42.9032ZM14.7718 45.9306L10.1048 48.3332L10.7914 49.6668L15.4584 47.2642L14.7718 45.9306ZM11.1149 48.6567L1.66682 30.3043L0.333177 30.9908L9.78126 49.3433L11.1149 48.6567ZM10.067 29.656L11.309 28.775L10.4411 27.5516L9.19917 28.4326L10.067 29.656ZM11.3091 28.7749C12.0694 28.2354 13.1109 27.4951 14.2339 26.7925L13.4383 25.5208C12.2731 26.2498 11.1979 27.0145 10.441 27.5517L11.3091 28.7749ZM14.2334 26.7927C16.6735 25.2684 19.7528 25.2001 22.2693 26.5981L22.9978 25.2869C20.0083 23.6261 16.3456 23.7046 13.4387 25.5206L14.2334 26.7927ZM22.271 26.5991C23.6814 27.3781 24.5486 28.0657 25.4329 28.7133L26.3192 27.5032C25.466 26.8783 24.51 26.1221 22.9962 25.286L22.271 26.5991ZM25.6728 28.8302L26.3029 29.0076L26.7094 27.5637L26.0793 27.3863L25.6728 28.8302ZM26.4785 29.0352L34.2543 29.3227L34.3097 27.8237L26.5339 27.5362L26.4785 29.0352ZM34.282 29.3232C35.3972 29.3232 36.2972 30.2232 36.2972 31.3385H37.7972C37.7972 29.3948 36.2257 27.8232 34.282 27.8232V29.3232ZM37.7972 31.3385V31.0509H36.2972V31.3385H37.7972ZM36.2972 31.0509C36.2972 31.6204 36.0635 32.2112 35.6735 32.6572C35.2853 33.1013 34.7879 33.3538 34.282 33.3538V34.8538C35.3055 34.8538 36.1908 34.3445 36.8028 33.6446C37.4131 32.9465 37.7972 32.011 37.7972 31.0509H36.2972ZM34.282 33.3538H27.0507V34.8538H34.282V33.3538ZM27.0496 34.8538L35.8104 34.866L35.8125 33.366L27.0517 33.3538L27.0496 34.8538ZM35.7857 34.8656C36.5953 34.8933 37.2393 34.7717 37.8383 34.4602C38.4083 34.1639 38.8881 33.7182 39.3959 33.2195L38.3449 32.1493C37.8309 32.654 37.494 32.9486 37.1463 33.1294C36.8276 33.2951 36.453 33.3876 35.8372 33.3664L35.7857 34.8656ZM39.3677 33.2458L46.7091 26.7425L45.7145 25.6197L38.3731 32.123L39.3677 33.2458ZM46.7373 26.7162C47.1606 26.3005 47.8202 26.2484 48.31 26.5966L49.1792 25.3741C48.1028 24.6089 46.6334 24.7159 45.6863 25.646L46.7373 26.7162ZM48.3071 26.5945C48.8762 27.0032 48.9882 27.7997 48.5603 28.3402L49.7364 29.2712C50.7034 28.0497 50.4361 26.2767 49.1821 25.3762L48.3071 26.5945ZM48.5269 28.3859L43.4062 35.9659L44.6492 36.8056L49.7699 29.2255L48.5269 28.3859ZM43.421 35.9449C41.7042 38.3078 38.8636 42.6101 33.7191 42.6101V44.1101C39.7581 44.1101 43.0354 39.0276 44.6345 36.8266L43.421 35.9449ZM33.7191 42.6101H16.1364V44.1101H33.7191V42.6101ZM34.1632 22.0638V17.9832H32.6632V22.0638H34.1632ZM34.1632 17.9832C34.1632 15.863 32.4978 14.398 30.7525 13.5102C28.9717 12.6043 26.8272 12.1431 25.3009 12.1431V13.6431C26.5889 13.6431 28.5006 14.0476 30.0724 14.8471C31.6796 15.6647 32.6632 16.7446 32.6632 17.9832H34.1632ZM25.3009 12.1431C23.775 12.1431 21.6233 12.6042 19.8354 13.5095C18.0841 14.3963 16.4081 15.8609 16.4081 17.9832H17.9081C17.9081 16.7467 18.8963 15.6664 20.513 14.8478C22.0929 14.0477 24.0127 13.6431 25.3009 13.6431V12.1431ZM16.4081 17.9832V22.0638H17.9081V17.9832H16.4081ZM25.3009 11.7649C26.6173 11.7649 27.8081 11.3007 28.6723 10.4485C29.5387 9.59431 30.0337 8.39284 30.0337 7.00162H28.5337C28.5337 8.02697 28.1752 8.83215 27.6192 9.38044C27.061 9.93076 26.2604 10.2649 25.3009 10.2649V11.7649ZM30.0337 7.00162V5.01332H28.5337V7.00162H30.0337ZM30.0337 5.01332C30.0337 3.6221 29.5387 2.42063 28.6723 1.5664C27.8081 0.714202 26.6173 0.25 25.3009 0.25V1.75C26.2604 1.75 27.061 2.08418 27.6192 2.6345C28.1752 3.18279 28.5337 3.98798 28.5337 5.01332H30.0337ZM25.3009 0.25C22.63 0.25 20.5315 2.16366 20.5315 5.01332H22.0315C22.0315 3.02987 23.4202 1.75 25.3009 1.75V0.25ZM20.5315 5.01332V7.00162H22.0315V5.01332H20.5315ZM20.5315 7.00162C20.5315 8.39299 21.0267 9.59547 21.8992 10.4502C22.7694 11.3028 23.9693 11.7649 25.3009 11.7649V10.2649C24.32 10.2649 23.5102 9.92871 22.9489 9.37875C22.3898 8.831 22.0315 8.02681 22.0315 7.00162H20.5315Z" fill="#284D6D"/>
</svg>
