<svg width="78" height="34" viewBox="0 0 78 34" fill="none" xmlns="http://www.w3.org/2000/svg">
<path d="M73.6666 2.2666H4.33322C3.69463 2.2666 3.19287 2.8106 3.19287 3.44527V28.8319C3.19287 29.5119 3.69463 30.0106 4.33322 30.0106H73.6666C74.3052 30.0106 74.8069 29.4666 74.8069 28.8319V3.44527C74.8069 2.8106 74.3052 2.2666 73.6666 2.2666Z" fill="white" stroke="#0450C8" stroke-width="0.5" stroke-miterlimit="10"/>
<path d="M4.42445 2.2666H31.5192V30.0106H4.42445C3.74024 30.0106 3.19287 29.4666 3.19287 28.8319V3.44527C3.19287 2.8106 3.74024 2.2666 4.42445 2.2666Z" fill="#0450C8"/>
<path d="M17.4246 7.38916L17.8351 8.25049L18.7474 8.38649L18.0632 9.02116L18.2 9.92783L17.379 9.47449L16.5579 9.92783L16.6947 9.02116L16.0105 8.38649L16.9228 8.25049L17.4246 7.38916ZM13.4561 8.56783L13.8667 9.42916L14.779 9.56516L14.0947 10.1998L14.2316 11.1065L13.4105 10.6532L12.5895 11.1065L12.7263 10.1998L12.0877 9.51983L13 9.38383L13.4561 8.56783ZM10.6281 11.1518L11.0386 12.0132L11.9509 12.1492L11.2667 12.7838L11.4035 13.6905L10.5825 13.2372L9.76141 13.6905L9.89825 12.7838L9.21404 12.1492L10.1263 12.0132L10.6281 11.1518ZM21.393 8.56783L20.9825 9.38383L20.0702 9.51983L20.7544 10.1545L20.6175 11.0612L21.4386 10.6078L22.2597 11.0612L22.1228 10.1545L22.807 9.51983L21.8947 9.38383L21.393 8.56783ZM13.4561 21.2612L13.8667 22.1225L14.779 22.2585L14.0947 22.8932L14.2316 23.7998L13.4105 23.3465L12.5895 23.7998L12.7263 22.8932L12.0877 22.2132L13 22.0772L13.4561 21.2612ZM21.393 21.2612L20.9825 22.0772L20.0702 22.2132L20.7544 22.8478L20.6175 23.7545L21.4386 23.3012L22.2597 23.7545L22.1228 22.8478L22.807 22.2132L21.8947 22.0772L21.393 21.2612ZM24.2211 11.1518L23.8105 12.0132L22.8982 12.1492L23.5825 12.7838L23.4456 13.6905L24.2667 13.2372L25.0877 13.6905L24.9509 12.7838L25.6351 12.1492L24.7228 12.0132L24.2211 11.1518ZM10.6281 18.5865L11.0386 19.4478L11.9509 19.5838L11.2667 20.2185L11.4035 21.1252L10.5825 20.6718L9.76141 21.1252L9.89825 20.2185L9.21404 19.5838L10.1263 19.4478L10.6281 18.5865ZM24.2211 18.5865L23.8105 19.4478L22.8982 19.5838L23.5825 20.2185L23.4456 21.1252L24.2667 20.6718L25.0877 21.1252L24.9509 20.2185L25.6351 19.5838L24.7228 19.4478L24.2211 18.5865ZM25.1333 15.1412L25.5439 16.0025L26.4561 16.1385L25.8175 16.7732L25.9544 17.6798L25.1333 17.2265L24.3123 17.6798L24.4491 16.7732L23.7649 16.1385L24.6772 16.0025L25.1333 15.1412ZM9.67018 15.1412L10.0807 16.0025L10.993 16.1385L10.3544 16.7732L10.4912 17.6798L9.67018 17.2265L8.84913 17.6798L8.98597 16.7732L8.30176 16.1385L9.21404 16.0025L9.67018 15.1412ZM17.4246 22.8932L17.8351 23.7545L18.7474 23.8905L18.0632 24.4798L18.2 25.3865L17.379 24.9332L16.5579 25.3865L16.6947 24.4798L16.0105 23.8452L16.9228 23.7092L17.4246 22.8932Z" fill="#FFBC01"/>
<path d="M17.4246 13.5547C16.558 13.5547 15.8281 14.2347 15.8281 15.096V15.368C15.5544 15.368 15.2808 15.5947 15.2808 15.8667V18.4507C15.2808 18.7227 15.5088 18.9494 15.8281 18.9494H19.0211C19.2948 18.9494 19.5685 18.7227 19.5685 18.4507V15.8667C19.5685 15.5947 19.3404 15.368 19.0211 15.368V15.096C19.0211 14.2347 18.2913 13.5547 17.4246 13.5547ZM17.4246 14.0534C18.0176 14.0534 18.4737 14.5067 18.4737 15.096V15.368H16.3755V15.096C16.3755 14.5067 16.8316 14.0534 17.4246 14.0534ZM16.3755 16.9094C16.5123 16.9094 16.6492 17.0454 16.6492 17.1814C16.6492 17.3174 16.5123 17.4534 16.3755 17.4534C16.2387 17.4534 16.1018 17.3174 16.1018 17.1814C16.1018 17 16.193 16.9094 16.3755 16.9094ZM17.4246 16.9094C17.5615 16.9094 17.6983 17.0454 17.6983 17.1814C17.6983 17.3174 17.5615 17.4534 17.4246 17.4534C17.2878 17.4534 17.1509 17.3174 17.1509 17.1814C17.1509 17 17.2878 16.9094 17.4246 16.9094ZM18.4737 16.9094C18.6106 16.9094 18.7474 17.0454 18.7474 17.1814C18.7474 17.3174 18.6106 17.4534 18.4737 17.4534C18.3369 17.4534 18.2001 17.3174 18.2001 17.1814C18.2001 17 18.3369 16.9094 18.4737 16.9094Z" fill="white"/>
<path d="M19.0211 16.3652H15.8281V17.9066H19.0211V16.3652Z" fill="white"/>
<path d="M42.786 16.8188L41.3264 14.2801H40.2316V16.8188H38.772V9.56543H41.6913C42.3755 9.56543 42.9228 9.7921 43.4246 10.2908C43.8807 10.7441 44.1544 11.3334 44.1544 12.0134C44.1544 12.4668 44.0176 12.8748 43.7895 13.2828C43.5614 13.6908 43.1965 13.9628 42.786 14.1441L44.4281 16.9094H42.786V16.8188ZM40.2316 10.8801V13.0108H41.7369C42.0106 13.0108 42.2386 12.9201 42.4211 12.6934C42.6036 12.4668 42.6948 12.2401 42.6948 11.9228C42.6948 11.6054 42.6036 11.3788 42.4211 11.1521C42.193 11.0161 41.965 10.8801 41.6913 10.8801H40.2316Z" fill="#080C34"/>
<path d="M52.3193 12.9199V13.4639C52.3193 14.5065 52 15.3679 51.3158 16.0025C50.6316 16.6372 49.7649 16.9545 48.7158 16.9545C47.5754 16.9545 46.6631 16.5919 45.8877 15.8665C45.1579 15.1412 44.793 14.2345 44.793 13.1919C44.793 12.1492 45.1579 11.2425 45.8877 10.5172C46.6175 9.79187 47.5298 9.4292 48.6245 9.4292C49.3088 9.4292 49.9474 9.5652 50.4947 9.88253C51.0421 10.1999 51.4982 10.6079 51.8175 11.1065L50.586 11.8319C50.4035 11.5145 50.1298 11.2879 49.8105 11.1065C49.4456 10.9252 49.0807 10.8345 48.6245 10.8345C47.9403 10.8345 47.3474 11.0612 46.8912 11.5145C46.4351 11.9679 46.207 12.5572 46.207 13.2372C46.207 13.9172 46.4351 14.5065 46.8912 14.9599C47.3474 15.4132 47.9403 15.6399 48.7158 15.6399C49.2631 15.6399 49.7193 15.5039 50.0842 15.2772C50.4491 15.0505 50.6772 14.6879 50.814 14.2799H48.5789V13.0105H52.3193V12.9199Z" fill="#080C34"/>
<path d="M56.0596 9.56543C56.7438 9.56543 57.3368 9.7921 57.8385 10.2908C58.3403 10.7441 58.5684 11.3334 58.5684 12.0134C58.5684 12.6934 58.3403 13.2828 57.8385 13.7361C57.3368 14.1894 56.7438 14.4614 56.0596 14.4614H54.7824V16.8641H53.3228V9.56543H56.0596ZM56.0596 13.1014C56.3789 13.1014 56.607 13.0108 56.835 12.7841C57.0175 12.5574 57.1543 12.3308 57.1543 12.0134C57.1543 11.6961 57.0631 11.4241 56.835 11.2428C56.6526 11.0161 56.3789 10.9254 56.0596 10.9254H54.7824V13.1468H56.0596V13.1014Z" fill="#080C34"/>
<path d="M62.4003 9.56543C63.4038 9.56543 64.2248 9.9281 64.909 10.6081C65.5932 11.2881 65.9125 12.1494 65.9125 13.1921C65.9125 14.2348 65.5932 15.0961 64.909 15.7761C64.2248 16.4561 63.4038 16.8188 62.4003 16.8188H59.481V9.56543H62.4003ZM62.4003 15.4588C63.0389 15.4588 63.5406 15.2321 63.9511 14.8241C64.3617 14.4161 64.5441 13.8721 64.5441 13.1921C64.5441 12.5121 64.3617 11.9681 63.9511 11.5601C63.5406 11.1521 63.0389 10.9254 62.4003 10.9254H60.9406V15.4588H62.4003Z" fill="#080C34"/>
<path d="M39.3193 22.9388C38.6351 22.9388 38.1333 22.7121 37.6772 22.3041C37.221 21.8961 37.0386 21.3521 37.0386 20.7174C37.0386 20.0828 37.2666 19.5388 37.6772 19.1308C38.0877 18.7228 38.6351 18.4961 39.3193 18.4961C39.7298 18.4961 40.0947 18.5868 40.414 18.7681C40.7333 18.9494 41.007 19.2214 41.1895 19.5388L40.6877 19.8108C40.5509 19.5841 40.3684 19.3574 40.1403 19.2214C39.9123 19.0854 39.6386 18.9948 39.3193 18.9948C38.8175 18.9948 38.407 19.1761 38.0877 19.4934C37.7684 19.8108 37.6316 20.2188 37.6316 20.7174C37.6316 21.2161 37.7684 21.5788 38.0877 21.9414C38.407 22.2588 38.8175 22.4401 39.3193 22.4401C39.6386 22.4401 39.9123 22.3494 40.1403 22.2134C40.3684 22.0774 40.5965 21.8961 40.6877 21.6241L41.1895 21.8961C41.007 22.2134 40.7333 22.4854 40.414 22.6668C40.0947 22.8481 39.7298 22.9388 39.3193 22.9388Z" fill="#7A7C8F"/>
<path d="M44.4282 22.4855C44.1089 22.8028 43.6983 22.9388 43.2422 22.9388C42.7861 22.9388 42.3755 22.8028 42.0562 22.4855C41.7369 22.1681 41.6001 21.8055 41.6001 21.3068C41.6001 20.8081 41.7369 20.4455 42.0562 20.1281C42.3755 19.8108 42.7405 19.6748 43.2422 19.6748C43.744 19.6748 44.1089 19.8108 44.4282 20.1281C44.7475 20.4455 44.9299 20.8081 44.9299 21.3068C44.9299 21.8055 44.7475 22.1681 44.4282 22.4855ZM43.2878 22.4401C43.6071 22.4401 43.8808 22.3495 44.0633 22.1228C44.2913 21.8961 44.3826 21.6695 44.3826 21.3521C44.3826 21.0348 44.2913 20.7628 44.0633 20.5815C43.8352 20.3548 43.6071 20.2641 43.2878 20.2641C42.9685 20.2641 42.7404 20.3548 42.5124 20.5815C42.2843 20.8081 42.1931 21.0348 42.1931 21.3521C42.1931 21.6695 42.2843 21.9415 42.5124 22.1228C42.6948 22.3041 42.9685 22.4401 43.2878 22.4401Z" fill="#7A7C8F"/>
<path d="M47.1192 19.6748C47.4841 19.6748 47.7578 19.8108 47.9859 20.0375C48.214 20.2641 48.3052 20.5815 48.3052 20.9895V22.8935H47.7578V21.0348C47.7578 20.7628 47.6666 20.5815 47.5298 20.4455C47.3929 20.3095 47.2105 20.2188 46.9824 20.2188C46.7087 20.2188 46.4806 20.3095 46.3438 20.4908C46.1613 20.6721 46.1157 20.8988 46.1157 21.2615V22.8935H45.5684V19.8108H46.1157V20.2641C46.3438 19.8561 46.6631 19.6748 47.1192 19.6748Z" fill="#7A7C8F"/>
<path d="M50.6773 18.9949C50.1299 18.9495 49.8563 19.1762 49.8563 19.7202V19.8109H50.6773V20.3549H49.8563V22.9389H49.3089V20.3549H48.8071V19.8109H49.3089V19.7202C49.3089 19.3122 49.4457 18.9949 49.6738 18.7682C49.9019 18.5415 50.2668 18.4509 50.6773 18.4962V18.9949Z" fill="#7A7C8F"/>
<path d="M53.5507 22.4855C53.2314 22.8028 52.8209 22.9388 52.3648 22.9388C51.9086 22.9388 51.4981 22.8028 51.1788 22.4855C50.8595 22.1681 50.7227 21.8055 50.7227 21.3068C50.7227 20.8081 50.8595 20.4455 51.1788 20.1281C51.4981 19.8108 51.863 19.6748 52.3648 19.6748C52.8665 19.6748 53.2314 19.8108 53.5507 20.1281C53.87 20.4455 54.0525 20.8081 54.0525 21.3068C54.0525 21.8055 53.87 22.1681 53.5507 22.4855ZM52.4104 22.4401C52.7297 22.4401 53.0034 22.3495 53.1858 22.1228C53.4139 21.8961 53.5051 21.6695 53.5051 21.3521C53.5051 21.0348 53.4139 20.7628 53.1858 20.5815C52.9577 20.3548 52.7297 20.2641 52.4104 20.2641C52.0911 20.2641 51.863 20.3548 51.6349 20.5815C51.4069 20.8081 51.3156 21.0348 51.3156 21.3521C51.3156 21.6695 51.4069 21.9415 51.6349 22.1228C51.8174 22.3041 52.0911 22.4401 52.4104 22.4401Z" fill="#7A7C8F"/>
<path d="M55.2388 20.3095C55.4212 19.9469 55.7405 19.7202 56.1967 19.7202V20.2642C55.923 20.2642 55.6949 20.3095 55.5125 20.4909C55.33 20.6269 55.2388 20.8989 55.2388 21.2162V22.8482H54.6914V19.7655H55.2388V20.3095Z" fill="#7A7C8F"/>
<path d="M60.1193 19.6748C60.4842 19.6748 60.7579 19.7655 60.986 19.9921C61.214 20.2188 61.3053 20.5361 61.3053 20.8988V22.8481H60.7579V20.9441C60.7579 20.7175 60.7123 20.5361 60.5754 20.4001C60.4386 20.2641 60.3017 20.2188 60.0737 20.2188C59.8456 20.2188 59.6632 20.3095 59.5263 20.4455C59.3895 20.5815 59.2982 20.8535 59.2982 21.1708V22.8935H58.7509V20.9895C58.7509 20.7628 58.7053 20.5815 58.5684 20.4455C58.4316 20.3095 58.2947 20.2641 58.0667 20.2641C57.8386 20.2641 57.6561 20.3548 57.4737 20.4908C57.3368 20.6268 57.2456 20.8988 57.2456 21.2161V22.9388H56.6982V19.8561H57.2456V20.2641C57.4737 19.9468 57.7474 19.7655 58.1579 19.7655C58.5684 19.7655 58.8877 19.9468 59.0702 20.3095C59.3439 19.8561 59.6632 19.6748 60.1193 19.6748Z" fill="#7A7C8F"/>
<path d="M62.3088 19.2214C62.2175 19.2214 62.1263 19.1761 62.0351 19.1308C61.9438 19.0854 61.9438 18.9948 61.9438 18.8588C61.9438 18.7681 61.9895 18.6774 62.0351 18.5868C62.0807 18.4961 62.1719 18.4961 62.3088 18.4961C62.4 18.4961 62.4912 18.5414 62.5824 18.5868C62.6737 18.6321 62.6737 18.7228 62.6737 18.8588C62.6737 18.9494 62.6281 19.0401 62.5824 19.1308C62.5368 19.2214 62.4 19.2214 62.3088 19.2214ZM62.0351 22.8934V19.8108H62.5824V22.8934H62.0351Z" fill="#7A7C8F"/>
<path d="M65.091 20.3096H64.2699V21.9869C64.2699 22.1229 64.3156 22.2589 64.3612 22.3042C64.4068 22.3496 64.498 22.3949 64.6349 22.3949C64.7717 22.3949 64.9085 22.3949 65.091 22.3949V22.8936C64.6349 22.9389 64.2699 22.9389 64.0419 22.7576C63.8138 22.5762 63.7226 22.3496 63.7226 21.9869V20.3096H63.084V19.7656H63.7226V19.0402L64.2699 18.8589V19.7202H65.091V20.3096Z" fill="#7A7C8F"/>
<path d="M65.958 21.5788C66.0036 21.8508 66.1405 22.0775 66.3229 22.2135C66.5054 22.3495 66.7791 22.4402 67.0528 22.4402C67.4633 22.4402 67.7826 22.3042 67.965 21.9868L68.4212 22.2588C68.1019 22.7122 67.6457 22.9388 67.0528 22.9388C66.551 22.9388 66.1405 22.8028 65.8668 22.4855C65.5931 22.1682 65.4106 21.8055 65.4106 21.3068C65.4106 20.8535 65.5475 20.4455 65.8668 20.1282C66.1861 19.8108 66.551 19.6748 67.0528 19.6748C67.5089 19.6748 67.8738 19.8562 68.1931 20.1735C68.4668 20.4908 68.6492 20.8988 68.6492 21.3522C68.6492 21.4428 68.6492 21.5335 68.6492 21.5788H65.958ZM67.0528 20.2188C66.7791 20.2188 66.5054 20.3095 66.3229 20.4455C66.1405 20.6268 66.0036 20.8082 65.958 21.0802H68.0563C68.0106 20.8082 67.8738 20.5815 67.6913 20.4002C67.5089 20.2642 67.2808 20.2188 67.0528 20.2188ZM67.7826 18.5415L67.144 19.3575H66.6422L67.144 18.5415H67.7826Z" fill="#7A7C8F"/>
</svg>
