<svg width="11" height="14" viewBox="0 0 11 14" fill="none" xmlns="http://www.w3.org/2000/svg">
<path fill-rule="evenodd" clip-rule="evenodd" d="M5.18279 1.86096C5.77191 1.86096 6.33689 2.11493 6.75346 2.56701C7.17003 3.01908 7.40405 3.63222 7.40405 4.27155V5.07508H2.96154V4.27155C2.96154 3.63222 3.19556 3.01908 3.61213 2.56701C4.0287 2.11493 4.59368 1.86096 5.18279 1.86096ZM1.4807 5.07508V4.27155C1.4807 3.206 1.87074 2.1841 2.56502 1.43065C3.2593 0.677192 4.20094 0.253906 5.18279 0.253906C6.16465 0.253906 7.10629 0.677192 7.80057 1.43065C8.49485 2.1841 8.88489 3.206 8.88489 4.27155V5.07508C9.27763 5.07508 9.65429 5.24439 9.932 5.54577C10.2097 5.84715 10.3657 6.25591 10.3657 6.68213V12.3068C10.3657 12.733 10.2097 13.1418 9.932 13.4432C9.65428 13.7446 9.27763 13.9139 8.88489 13.9139H1.4807C1.08796 13.9139 0.711306 13.7446 0.433594 13.4432C0.155882 13.1418 -0.000132561 12.733 -0.000132561 12.3068V6.68213C-0.000132561 6.25592 0.155882 5.84716 0.433594 5.54577C0.711305 5.24439 1.08796 5.07508 1.4807 5.07508ZM8.88489 6.68213L8.88489 12.3068H1.4807V6.68213H8.88489ZM5.18279 8.28919C4.77387 8.28919 4.44238 8.64894 4.44238 9.09272V10.6998C4.44238 11.1436 4.77387 11.5033 5.18279 11.5033C5.59172 11.5033 5.92321 11.1436 5.92321 10.6998V9.09272C5.92321 8.64894 5.59172 8.28919 5.18279 8.28919Z" fill="#A1A1B2"/>
</svg>
