<svg width="24" height="24" viewBox="0 0 24 24" fill="none" xmlns="http://www.w3.org/2000/svg">
<path d="M10.6733 14.0867L8.38 11.7933C8.18444 11.5978 7.93555 11.5 7.63333 11.5C7.33111 11.5 7.08222 11.5978 6.88667 11.7933C6.69111 11.9889 6.59333 12.2378 6.59333 12.54C6.59333 12.8422 6.69111 13.0911 6.88667 13.2867L9.92667 16.3267C10.14 16.54 10.3889 16.6467 10.6733 16.6467C10.9578 16.6467 11.2067 16.54 11.42 16.3267L17.4467 10.3C17.6422 10.1044 17.74 9.85556 17.74 9.55333C17.74 9.25111 17.6422 9.00222 17.4467 8.80667C17.2511 8.61111 17.0022 8.51333 16.7 8.51333C16.3978 8.51333 16.1489 8.61111 15.9533 8.80667L10.6733 14.0867ZM12.1667 22.8333C10.6911 22.8333 9.30444 22.5532 8.00667 21.9928C6.70889 21.4324 5.58 20.6726 4.62 19.7133C3.66 18.7533 2.90018 17.6244 2.34053 16.3267C1.78089 15.0289 1.50071 13.6422 1.5 12.1667C1.5 10.6911 1.78018 9.30444 2.34053 8.00667C2.90089 6.70889 3.66071 5.58 4.62 4.62C5.58 3.66 6.70889 2.90018 8.00667 2.34053C9.30444 1.78089 10.6911 1.50071 12.1667 1.5C13.6422 1.5 15.0289 1.78018 16.3267 2.34053C17.6244 2.90089 18.7533 3.66071 19.7133 4.62C20.6733 5.58 21.4335 6.70889 21.9939 8.00667C22.5542 9.30444 22.834 10.6911 22.8333 12.1667C22.8333 13.6422 22.5532 15.0289 21.9928 16.3267C21.4324 17.6244 20.6726 18.7533 19.7133 19.7133C18.7533 20.6733 17.6244 21.4335 16.3267 21.9939C15.0289 22.5542 13.6422 22.834 12.1667 22.8333Z" fill="#FE5F5F"/>
</svg>
