<svg width="120" height="120" viewBox="0 0 120 120" fill="none" xmlns="http://www.w3.org/2000/svg">
<path d="M59.5619 115.977C90.7192 115.977 115.977 90.7192 115.977 59.5619C115.977 28.4045 90.7192 3.14648 59.5619 3.14648C28.4045 3.14648 3.14648 28.4045 3.14648 59.5619C3.14648 90.7192 28.4045 115.977 59.5619 115.977Z" fill="#FE5F5F" stroke="#FE5F5F" stroke-width="1.5" stroke-linejoin="round"/>
<path d="M24.1692 64.3377C24.0128 63.8686 23.7285 63.5417 23.3021 63.3995C22.8757 63.2432 22.1934 63.1579 21.2695 63.1579C20.3456 63.1579 19.5496 63.101 18.9384 63.0158C16.92 62.7315 15.6692 61.836 15.1717 60.3435C14.9301 59.6044 14.9301 58.8653 15.1717 58.1546C15.4133 57.4439 15.8966 56.8042 16.5789 56.2215C17.2612 55.6387 18.114 55.198 19.109 54.8711C20.104 54.5442 20.9994 54.4447 21.8807 54.5442C22.762 54.6437 23.5153 54.9422 24.155 55.4397C24.7946 55.9372 25.2352 56.6052 25.5053 57.4154L22.2645 58.4673C22.0797 57.9129 21.7812 57.5434 21.3406 57.3586C20.9142 57.1596 20.4025 57.1596 19.8339 57.3586C19.2653 57.5576 18.8389 57.8276 18.5831 58.183C18.3272 58.5526 18.2704 58.9221 18.3983 59.3201C18.512 59.6612 18.7963 59.9171 19.2511 60.0735C19.706 60.2298 20.4593 60.3151 21.4827 60.3009C22.5061 60.2867 23.3732 60.3719 24.0839 60.5141C25.8038 60.8836 26.9125 61.7933 27.3957 63.2716C27.7795 64.4514 27.6374 65.5174 26.9693 66.4698C26.3013 67.4221 25.1926 68.1612 23.6433 68.6587C22.5488 69.0141 21.4969 69.142 20.4877 69.0425C19.4785 68.943 18.6399 68.6161 17.9719 68.0902C17.3038 67.55 16.8205 66.8393 16.5363 65.958L19.7913 64.9062C20.0187 65.6311 20.3882 66.1002 20.8715 66.3134C21.3548 66.5408 22.0086 66.5124 22.8473 66.2423C23.3874 66.0718 23.7712 65.8159 23.9986 65.489C24.2402 65.1621 24.2829 64.7783 24.1407 64.3661L24.1692 64.3377Z" fill="#F7F6FB"/>
<path d="M38.0136 57.4724L32.9107 59.1354L33.9626 62.3478L39.9893 60.3862L40.7995 62.8879L31.532 65.9013L27.1541 52.4548L36.4358 49.4272L37.246 51.9289L31.205 53.8904L32.129 56.7332L37.2318 55.0702L38.0136 57.4724Z" fill="#F7F6FB"/>
<path d="M46.8405 55.6528L45.0779 56.2213L46.6273 60.983L43.3865 62.0349L39.0085 48.5884L44.2962 46.8685C45.8881 46.3426 47.2527 46.2999 48.3898 46.7122C49.5127 47.1244 50.2945 47.9772 50.7209 49.2707C51.0194 50.2088 51.0905 51.0474 50.9057 51.7866C50.7209 52.5257 50.2945 53.2222 49.6122 53.8618L54.1891 58.3819L54.2317 58.524L50.7635 59.6611L46.8405 55.6812V55.6528ZM44.2677 53.7339L46.3145 53.0658C46.9257 52.8668 47.338 52.5541 47.5512 52.1277C47.7502 51.7013 47.7644 51.2038 47.5796 50.621C47.3948 50.0382 47.0821 49.6402 46.6699 49.4128C46.2435 49.1854 45.7318 49.1712 45.1206 49.3702L43.0738 50.0382L44.2819 53.7481L44.2677 53.7339Z" fill="#F7F6FB"/>
<path d="M60.8698 52.2983L60.3581 41.6378L63.9827 40.458L63.8264 55.3827L60.2729 56.534L51.4033 44.5374L54.9995 43.3719L60.8556 52.2983H60.8698Z" fill="#F7F6FB"/>
<path d="M74.0887 52.0426L70.8479 53.0945L66.47 39.648L69.7108 38.5962L74.0887 52.0426Z" fill="#F7F6FB"/>
<path d="M87.0234 42.8033C87.2793 43.7556 87.3077 44.6653 87.0661 45.5324C86.8244 46.3994 86.3696 47.167 85.6589 47.8351C84.9482 48.5031 84.0669 49.0148 82.9866 49.356C81.2241 49.9245 79.6321 49.8108 78.2534 48.9864C76.8746 48.162 75.8228 46.6979 75.1405 44.6085L74.9273 43.9404C74.5009 42.6185 74.3587 41.3961 74.4867 40.259C74.6288 39.1219 75.041 38.1411 75.7233 37.3167C76.4056 36.4923 77.3153 35.9095 78.4524 35.5399C80.087 35.014 81.5368 35.014 82.8019 35.5399C84.0669 36.0659 85.0192 37.0751 85.6447 38.5391L82.4039 39.5909C82.1054 38.7807 81.7216 38.2548 81.2099 38.0274C80.6982 37.8 80.0586 37.8142 79.2626 38.07C78.4666 38.3259 77.9691 38.8234 77.7843 39.5483C77.5995 40.2732 77.7275 41.2966 78.1397 42.6327L78.4524 43.5851C78.9214 45.0207 79.4331 45.9872 80.0017 46.4847C80.556 46.9822 81.281 47.0959 82.1622 46.7974C82.9014 46.5558 83.4131 46.2004 83.6973 45.7172C83.9816 45.2339 84.01 44.6085 83.7826 43.8409L87.0092 42.7891L87.0234 42.8033Z" fill="#F7F6FB"/>
<path d="M97.8119 38.0134L92.7091 39.6764L93.7609 42.8888L99.7876 40.9273L100.598 43.4289L91.3303 46.4423L86.9524 32.9958L96.2341 29.9683L97.0443 32.4699L91.0034 34.4315L91.9273 37.2743L97.0301 35.6112L97.8119 38.0134Z" fill="#F7F6FB"/>
<path d="M35.4551 85.2038C35.1424 85.9145 34.5454 86.611 33.7068 87.2506C32.8682 87.8902 31.859 88.4161 30.7076 88.7857C28.9451 89.3543 27.3674 89.2832 25.9602 88.5441C24.553 87.8049 23.5011 86.4973 22.8047 84.5926L22.4209 83.427C21.9945 82.1051 21.8523 80.8685 21.9945 79.7314C22.1366 78.5943 22.563 77.6135 23.2595 76.7891C23.956 75.9789 24.8799 75.3819 26.0312 74.9981C27.7085 74.458 29.1299 74.4153 30.3097 74.8844C31.4894 75.3535 32.3991 76.32 33.053 77.7841L29.9259 78.7933C29.5705 78.0826 29.1583 77.6135 28.675 77.4145C28.1918 77.2155 27.6232 77.2297 26.9409 77.4429C26.1307 77.713 25.6048 78.2531 25.3916 79.0918C25.1784 79.9304 25.2637 80.9822 25.6759 82.2615L25.946 83.0717C26.3866 84.4078 26.9409 85.3459 27.6232 85.8718C28.3055 86.3978 29.1299 86.4973 30.1249 86.1845C30.9635 85.9145 31.5321 85.5165 31.8306 85.0048L31.1483 82.9153L28.8883 83.6545L28.1633 81.4229L33.6642 79.6319L35.4551 85.1611V85.2038Z" fill="#F7F6FB"/>
<path d="M42.2067 79.5751L40.4441 80.1437L41.9935 84.9054L38.7527 85.9572L34.3748 72.5108L39.6624 70.7909C41.2543 70.2649 42.6189 70.2223 43.756 70.6345C44.8789 71.0467 45.6607 71.8996 46.0871 73.193C46.3856 74.1312 46.4567 74.9698 46.2719 75.7089C46.0871 76.448 45.6607 77.1445 44.9784 77.7842L49.5553 82.3042L49.598 82.4464L46.1297 83.5835L42.2067 79.6036V79.5751ZM39.6339 77.6562L41.6808 76.9882C42.292 76.7892 42.7042 76.4765 42.9174 76.0501C43.1164 75.6236 43.1306 75.1261 42.9458 74.5434C42.761 73.9606 42.4483 73.5626 42.0361 73.3352C41.6097 73.1078 41.098 73.0935 40.4868 73.2925L38.44 73.9606L39.6482 77.6704L39.6339 77.6562Z" fill="#F7F6FB"/>
<path d="M58.7803 76.6612L54.3313 78.111L54.374 80.8827L50.9058 82.0056L51.4601 66.953L54.5161 65.958L63.8689 77.7983L60.3865 78.9354L58.7803 76.6754V76.6612ZM54.3029 75.3535L57.1883 74.4153L54.2176 70.2222L54.2887 75.3535H54.3029Z" fill="#F7F6FB"/>
<path d="M71.6013 63.1721L67.5646 64.4798L71.1323 75.4245L67.8915 76.4764L64.3238 65.5316L60.3581 66.8251L59.5479 64.3234L70.7911 60.6704L71.6013 63.1721Z" fill="#F7F6FB"/>
<path d="M83.5695 56.5059L86.4407 65.3044C86.7676 66.2994 86.8387 67.2375 86.6397 68.1045C86.4407 68.9716 86.0285 69.7249 85.3462 70.3646C84.6639 71.0042 83.7969 71.5017 82.7166 71.857C81.082 72.3972 79.6464 72.383 78.424 71.8428C77.2016 71.3027 76.3488 70.2935 75.8513 68.8152L72.9658 59.9457L76.2208 58.8797L79.1347 67.8203C79.6464 69.2843 80.5703 69.796 81.9064 69.3554C82.5745 69.1422 83.0293 68.7868 83.2568 68.3035C83.4842 67.8203 83.4558 67.1664 83.1857 66.3278L80.3287 57.5435L83.5695 56.4917V56.5059Z" fill="#F7F6FB"/>
<path d="M94.2869 67.8913L91.0461 68.9431L86.6682 55.4967L89.909 54.4448L94.2869 67.8913Z" fill="#F7F6FB"/>
<path d="M104.137 52.5827L100.1 53.8904L103.668 64.8352L100.427 65.887L96.8596 54.9422L92.8939 56.2357L92.0837 53.7341L103.327 50.0811L104.137 52.5827Z" fill="#F7F6FB"/>
</svg>
