<svg width="18" height="29" viewBox="0 0 18 29" fill="none" xmlns="http://www.w3.org/2000/svg">
<path d="M14.0869 1.63281H3.91297C2.66433 1.63281 1.6521 2.64504 1.6521 3.89368V25.3719C1.6521 26.6206 2.66433 27.6328 3.91297 27.6328H14.0869C15.3355 27.6328 16.3478 26.6206 16.3478 25.3719V3.89368C16.3478 2.64504 15.3355 1.63281 14.0869 1.63281Z" stroke="#A1A1B2" stroke-width="1.6" stroke-linecap="round" stroke-linejoin="round"/>
<path d="M12.703 1.63281V3.11404C12.703 3.50689 12.547 3.88364 12.2692 4.16143C11.9914 4.43921 11.6146 4.59527 11.2218 4.59527H6.7781C6.38526 4.59527 6.0085 4.43921 5.73072 4.16143C5.45293 3.88364 5.29688 3.50689 5.29688 3.11404V1.63281" stroke="#A1A1B2" stroke-width="1.6" stroke-linecap="round" stroke-linejoin="round"/>
</svg>
