<svg width="18" height="18" viewBox="0 0 18 18" fill="none" xmlns="http://www.w3.org/2000/svg">
<g clip-path="url(#clip0_412_2432)">
<path d="M15.2845 16.8512L10.5491 12.1157C10.037 12.5254 9.44808 12.8497 8.78236 13.0887C8.11664 13.3277 7.40825 13.4472 6.65718 13.4472C4.79659 13.4472 3.22208 12.8026 1.93366 11.5135C0.645235 10.2244 0.000682788 8.64991 0 6.79C0 4.9294 0.644552 3.35489 1.93366 2.06647C3.22276 0.778047 4.79727 0.133495 6.65718 0.132812C8.51778 0.132812 10.0923 0.777364 11.3807 2.06647C12.6691 3.35557 13.3137 4.93008 13.3144 6.79C13.3144 7.54106 13.1949 8.24946 12.9559 8.91517C12.7169 9.58089 12.3926 10.1698 11.9829 10.6819L16.744 15.4429C16.9317 15.6307 17.0256 15.8611 17.0256 16.1342C17.0256 16.4074 16.9232 16.6463 16.7183 16.8512C16.5306 17.0389 16.2916 17.1328 16.0014 17.1328C15.7112 17.1328 15.4723 17.0389 15.2845 16.8512ZM6.65718 11.3988C7.93741 11.3988 9.02577 10.9506 9.92227 10.0541C10.8188 9.15756 11.2667 8.06954 11.266 6.79C11.266 5.50977 10.8178 4.4214 9.92125 3.5249C9.02475 2.6284 7.93673 2.18049 6.65718 2.18118C5.37696 2.18118 4.28859 2.62943 3.39209 3.52593C2.49559 4.42243 2.04768 5.51045 2.04836 6.79C2.04836 8.07022 2.49661 9.15859 3.39312 10.0551C4.28962 10.9516 5.37764 11.3995 6.65718 11.3988Z" fill="#FE5F5F"/>
</g>
<defs>
<clipPath id="clip0_412_2432">
<rect width="17.0256" height="17" fill="white" transform="translate(0 0.132812)"/>
</clipPath>
</defs>
</svg>
