<svg width="98" height="25" viewBox="0 0 98 25" fill="none" xmlns="http://www.w3.org/2000/svg">
<g clip-path="url(#clip0_412_2449)">
<path d="M25.9917 9.20508H35.8133V11.0512H31.9515V21.4294H29.8279V11.0512H25.9832V9.20508H25.9917ZM35.3937 12.5782H37.2091V14.2863H37.2433C37.3032 14.0448 37.4146 13.8118 37.5773 13.5875C37.74 13.3632 37.9369 13.1476 38.1681 12.9664C38.3993 12.7766 38.6562 12.63 38.9387 12.5092C39.2213 12.397 39.5125 12.3366 39.8036 12.3366C40.0262 12.3366 40.1889 12.3453 40.2746 12.3539C40.3602 12.3625 40.4458 12.3798 40.54 12.3884V14.2691C40.403 14.2432 40.266 14.2259 40.1204 14.2087C39.9749 14.1914 39.8378 14.1828 39.7008 14.1828C39.3755 14.1828 39.0672 14.2518 38.7761 14.3812C38.4849 14.5106 38.2366 14.709 38.0225 14.9592C37.8085 15.218 37.6372 15.5286 37.5088 15.9082C37.3803 16.2878 37.3204 16.7191 37.3204 17.2108V21.4208H35.3852V12.5782H35.3937ZM49.4368 21.4294H47.5359V20.1957H47.5016C47.2618 20.6443 46.9108 20.998 46.4398 21.2655C45.9689 21.5329 45.4893 21.6709 45.0012 21.6709C43.8453 21.6709 43.0061 21.3862 42.4923 20.8082C41.9786 20.2302 41.7217 19.3589 41.7217 18.1943V12.5782H43.6569V18.0045C43.6569 18.7809 43.8025 19.333 44.1021 19.6522C44.3933 19.9714 44.8129 20.1353 45.3438 20.1353C45.7548 20.1353 46.0887 20.075 46.3627 19.9456C46.6368 19.8161 46.8594 19.6522 47.0221 19.4366C47.1933 19.2295 47.3132 18.9707 47.3903 18.6774C47.4674 18.3841 47.5016 18.0649 47.5016 17.7198V12.5868H49.4368V21.4294ZM52.7335 18.5911C52.7934 19.1605 53.0075 19.5573 53.3757 19.7903C53.7525 20.0146 54.1978 20.1353 54.7201 20.1353C54.8999 20.1353 55.1054 20.1181 55.3366 20.0922C55.5678 20.0663 55.7904 20.0059 55.9874 19.9283C56.1929 19.8507 56.3556 19.7299 56.4926 19.5746C56.621 19.4193 56.681 19.2209 56.6724 18.9707C56.6639 18.7205 56.5697 18.5135 56.3984 18.3582C56.2271 18.1943 56.0131 18.0735 55.7476 17.97C55.4822 17.8751 55.1825 17.7888 54.84 17.7198C54.4974 17.6508 54.1549 17.5732 53.8039 17.4955C53.4442 17.4179 53.0931 17.3144 52.7592 17.2022C52.4252 17.0901 52.1255 16.9348 51.8601 16.7364C51.5946 16.5466 51.3806 16.2964 51.2264 15.9944C51.0637 15.6925 50.9867 15.3215 50.9867 14.8729C50.9867 14.3898 51.1066 13.993 51.3378 13.6652C51.569 13.3374 51.8687 13.0786 52.2197 12.8801C52.5794 12.6817 52.9733 12.5437 53.41 12.4574C53.8467 12.3798 54.2663 12.3366 54.6601 12.3366C55.114 12.3366 55.5507 12.3884 55.9617 12.4833C56.3727 12.5782 56.7495 12.7335 57.0834 12.9578C57.4174 13.1734 57.6914 13.4581 57.914 13.8032C58.1367 14.1483 58.2737 14.571 58.3336 15.0627H56.3128C56.2186 14.5969 56.0131 14.2777 55.6791 14.1224C55.3452 13.9585 54.9598 13.8809 54.5317 13.8809C54.3947 13.8809 54.232 13.8895 54.0436 13.9154C53.8552 13.9412 53.684 13.9844 53.5127 14.0448C53.35 14.1051 53.213 14.2 53.0931 14.3208C52.9818 14.4416 52.9219 14.5969 52.9219 14.7953C52.9219 15.0369 53.0075 15.2266 53.1702 15.3733C53.3329 15.52 53.547 15.6407 53.8124 15.7443C54.0779 15.8392 54.3776 15.9254 54.7201 15.9944C55.0626 16.0635 55.4137 16.1411 55.7733 16.2187C56.1244 16.2964 56.4669 16.3999 56.8094 16.5121C57.1519 16.6242 57.4516 16.7795 57.7171 16.9779C57.9825 17.1763 58.1966 17.4179 58.3593 17.7112C58.522 18.0045 58.6076 18.3755 58.6076 18.8068C58.6076 19.333 58.4877 19.773 58.248 20.144C58.0082 20.5063 57.7 20.8082 57.3232 21.0325C56.9464 21.2568 56.5183 21.4294 56.0559 21.5329C55.5935 21.6364 55.1311 21.6882 54.6773 21.6882C54.1207 21.6882 53.6069 21.6278 53.136 21.4984C52.665 21.369 52.254 21.1792 51.9115 20.929C51.569 20.6702 51.2949 20.351 51.098 19.9714C50.9011 19.5918 50.7983 19.1346 50.7812 18.6084H52.7335V18.5911ZM59.1214 12.5782H60.5856V9.92111H62.5208V12.5782H64.2677V14.0361H62.5208V18.7637C62.5208 18.9707 62.5294 19.1433 62.5465 19.2985C62.5637 19.4452 62.6065 19.5746 62.6664 19.6781C62.7264 19.7816 62.8205 19.8593 62.949 19.911C63.0774 19.9628 63.2401 19.9887 63.4628 19.9887C63.5998 19.9887 63.7368 19.9887 63.8738 19.9801C64.0108 19.9714 64.1478 19.9542 64.2848 19.9197V21.4294C64.0707 21.4553 63.8566 21.4725 63.6597 21.4984C63.4542 21.5243 63.2487 21.5329 63.0346 21.5329C62.5208 21.5329 62.1098 21.4811 61.8016 21.3862C61.4933 21.2913 61.245 21.1447 61.0737 20.9549C60.8939 20.7651 60.7826 20.5322 60.7141 20.2475C60.6541 19.9628 60.6113 19.635 60.6028 19.2727V14.0534H59.1385V12.5782H59.1214ZM65.6377 12.5782H67.4702V13.7773H67.5044C67.7784 13.2597 68.1552 12.8974 68.6433 12.6731C69.1314 12.4488 69.6537 12.3366 70.2274 12.3366C70.921 12.3366 71.5204 12.4574 72.0342 12.7076C72.548 12.9491 72.9761 13.2856 73.3186 13.7169C73.6611 14.1483 73.9094 14.6486 74.0807 15.218C74.2519 15.7874 74.3376 16.3999 74.3376 17.0469C74.3376 17.6422 74.2605 18.2202 74.1064 18.7723C73.9523 19.333 73.7211 19.8248 73.4128 20.2561C73.1045 20.6875 72.7106 21.0239 72.2311 21.2827C71.7516 21.5415 71.195 21.6709 70.5442 21.6709C70.2617 21.6709 69.9791 21.645 69.6965 21.5933C69.4139 21.5415 69.1399 21.4553 68.883 21.3431C68.6262 21.231 68.3778 21.0843 68.1638 20.9031C67.9411 20.722 67.7613 20.5149 67.6072 20.282H67.5729V24.699H65.6377V12.5782ZM72.4024 17.0124C72.4024 16.6156 72.351 16.2274 72.2482 15.8478C72.1455 15.4682 71.9914 15.1404 71.7859 14.8471C71.5803 14.5537 71.3235 14.3208 71.0238 14.1483C70.7155 13.9757 70.3644 13.8809 69.9705 13.8809C69.1571 13.8809 68.5405 14.1655 68.1295 14.7349C67.7185 15.3043 67.513 16.0635 67.513 17.0124C67.513 17.461 67.5644 17.8751 67.6757 18.2547C67.787 18.6343 67.9411 18.9621 68.1638 19.2381C68.3778 19.5142 68.6347 19.7299 68.9344 19.8852C69.2341 20.0491 69.5852 20.1267 69.9791 20.1267C70.4244 20.1267 70.7926 20.0318 71.1008 19.8507C71.4091 19.6695 71.6574 19.4279 71.8544 19.1433C72.0513 18.8499 72.1969 18.5221 72.2825 18.1512C72.3596 17.7802 72.4024 17.4006 72.4024 17.0124ZM75.819 9.20508H77.7542V11.0512H75.819V9.20508ZM75.819 12.5782H77.7542V21.4294H75.819V12.5782ZM79.4839 9.20508H81.4191V21.4294H79.4839V9.20508ZM87.3531 21.6709C86.651 21.6709 86.0259 21.5502 85.4779 21.3172C84.9298 21.0843 84.4674 20.7565 84.0821 20.351C83.7053 19.9369 83.4142 19.4452 83.2173 18.8758C83.0203 18.3064 82.9176 17.6767 82.9176 16.9952C82.9176 16.3223 83.0203 15.7011 83.2173 15.1317C83.4142 14.5624 83.7053 14.0706 84.0821 13.6566C84.4589 13.2425 84.9298 12.9233 85.4779 12.6903C86.0259 12.4574 86.651 12.3366 87.3531 12.3366C88.0553 12.3366 88.6804 12.4574 89.2284 12.6903C89.7764 12.9233 90.2388 13.2511 90.6241 13.6566C91.0009 14.0706 91.292 14.5624 91.489 15.1317C91.6859 15.7011 91.7887 16.3223 91.7887 16.9952C91.7887 17.6767 91.6859 18.3064 91.489 18.8758C91.292 19.4452 91.0009 19.9369 90.6241 20.351C90.2474 20.7651 89.7764 21.0843 89.2284 21.3172C88.6804 21.5502 88.0553 21.6709 87.3531 21.6709ZM87.3531 20.1267C87.7813 20.1267 88.158 20.0318 88.4749 19.8507C88.7917 19.6695 89.0486 19.4279 89.2541 19.1346C89.4596 18.8413 89.6052 18.5049 89.7079 18.1339C89.8021 17.7629 89.8535 17.3834 89.8535 16.9952C89.8535 16.6156 89.8021 16.2446 89.7079 15.865C89.6137 15.4855 89.4596 15.1576 89.2541 14.8643C89.0486 14.571 88.7917 14.3381 88.4749 14.1569C88.158 13.9757 87.7813 13.8809 87.3531 13.8809C86.925 13.8809 86.5482 13.9757 86.2314 14.1569C85.9146 14.3381 85.6577 14.5796 85.4522 14.8643C85.2467 15.1576 85.1011 15.4855 84.9983 15.865C84.9041 16.2446 84.8528 16.6156 84.8528 16.9952C84.8528 17.3834 84.9041 17.7629 84.9983 18.1339C85.0925 18.5049 85.2467 18.8413 85.4522 19.1346C85.6577 19.4279 85.9146 19.6695 86.2314 19.8507C86.5482 20.0404 86.925 20.1267 87.3531 20.1267ZM92.3538 12.5782H93.8181V9.92111H95.7533V12.5782H97.5001V14.0361H95.7533V18.7637C95.7533 18.9707 95.7618 19.1433 95.779 19.2985C95.7961 19.4452 95.8389 19.5746 95.8988 19.6781C95.9588 19.7816 96.053 19.8593 96.1814 19.911C96.3099 19.9628 96.4726 19.9887 96.6952 19.9887C96.8322 19.9887 96.9692 19.9887 97.1062 19.9801C97.2432 19.9714 97.3802 19.9542 97.5172 19.9197V21.4294C97.3032 21.4553 97.0891 21.4725 96.8921 21.4984C96.6866 21.5243 96.4811 21.5329 96.2671 21.5329C95.7533 21.5329 95.3423 21.4811 95.034 21.3862C94.7257 21.2913 94.4774 21.1447 94.3062 20.9549C94.1263 20.7651 94.015 20.5322 93.9465 20.2475C93.8866 19.9628 93.8438 19.635 93.8352 19.2727V14.0534H92.371V12.5782H92.3538Z" fill="#191919"/>
<path d="M23.731 9.20484H14.8599L12.1198 0.69873L9.37112 9.20484L0.5 9.19621L7.68423 14.4586L4.93556 22.9561L12.1198 17.7023L19.2955 22.9561L16.5554 14.4586L23.731 9.20484Z" fill="#00B67A"/>
<path d="M17.172 16.3823L16.5554 14.4585L12.1199 17.7022L17.172 16.3823Z" fill="#005128"/>
</g>
<defs>
<clipPath id="clip0_412_2449">
<rect width="97" height="24" fill="white" transform="translate(0.5 0.69873)"/>
</clipPath>
</defs>
</svg>
