<svg width="96" height="19" viewBox="0 0 96 19" fill="none" xmlns="http://www.w3.org/2000/svg">
<g clip-path="url(#clip0_1460_2382)">
<g clip-path="url(#clip1_1460_2382)">
<path d="M18 0.69873H0V18.6987H18V0.69873Z" fill="#00B67A"/>
<path d="M37.5 0.69873H19.5V18.6987H37.5V0.69873Z" fill="#00B67A"/>
<path d="M57 0.69873H39V18.6987H57V0.69873Z" fill="#00B67A"/>
<path d="M76.5 0.69873H58.5V18.6987H76.5V0.69873Z" fill="#00B67A"/>
<path d="M96 0.69873H78V18.6987H96V0.69873Z" fill="#00B67A"/>
<path d="M9.0002 12.8301L11.7377 12.1363L12.8814 15.6613L9.0002 12.8301ZM15.3002 8.27383H10.4814L9.0002 3.73633L7.51895 8.27383H2.7002L6.6002 11.0863L5.11895 15.6238L9.01894 12.8113L11.4189 11.0863L15.3002 8.27383Z" fill="white"/>
<path d="M28.5002 12.8301L31.2377 12.1363L32.3814 15.6613L28.5002 12.8301ZM34.8002 8.27383H29.9814L28.5002 3.73633L27.0189 8.27383H22.2002L26.1002 11.0863L24.6189 15.6238L28.5189 12.8113L30.9189 11.0863L34.8002 8.27383Z" fill="white"/>
<path d="M48.0002 12.8301L50.7377 12.1363L51.8814 15.6613L48.0002 12.8301ZM54.3002 8.27383H49.4814L48.0002 3.73633L46.5189 8.27383H41.7002L45.6002 11.0863L44.1189 15.6238L48.0189 12.8113L50.4189 11.0863L54.3002 8.27383Z" fill="white"/>
<path d="M67.5002 12.8301L70.2377 12.1363L71.3814 15.6613L67.5002 12.8301ZM73.8002 8.27383H68.9814L67.5002 3.73633L66.0189 8.27383H61.2002L65.1002 11.0863L63.6189 15.6238L67.5189 12.8113L69.9189 11.0863L73.8002 8.27383Z" fill="white"/>
<path d="M87.0002 12.8301L89.7377 12.1363L90.8814 15.6613L87.0002 12.8301ZM93.3002 8.27383H88.4814L87.0002 3.73633L85.5189 8.27383H80.7002L84.6002 11.0863L83.1189 15.6238L87.0189 12.8113L89.4189 11.0863L93.3002 8.27383Z" fill="white"/>
</g>
</g>
<defs>
<clipPath id="clip0_1460_2382">
<rect width="96" height="18" fill="white" transform="translate(0 0.69873)"/>
</clipPath>
<clipPath id="clip1_1460_2382">
<rect width="96" height="18" fill="white" transform="translate(0 0.69873)"/>
</clipPath>
</defs>
</svg>
